<mxfile host="app.diagrams.net" modified="2024-02-19T16:28:30.668Z" agent="Mozilla/5.0 (Windows NT 10.0; Win64; x64) AppleWebKit/537.36 (KHTML, like Gecko) Chrome/121.0.0.0 Safari/537.36" etag="h7F-9J0HWZBSMDuoFu6w" version="23.1.5" type="google">
  <diagram name="Página-1" id="aoOqQ6P_cG6xuUnF2Pce">
    <mxGraphModel grid="1" page="1" gridSize="10" guides="1" tooltips="1" connect="1" arrows="1" fold="1" pageScale="1" pageWidth="827" pageHeight="1169" math="0" shadow="0">
      <root>
        <mxCell id="0" />
        <mxCell id="1" parent="0" />
        <mxCell id="VIRYulT3ZGyrxliM-nU3-35" value="" style="rounded=0;whiteSpace=wrap;html=1;" vertex="1" parent="1">
          <mxGeometry x="100" y="110" width="590" height="1130" as="geometry" />
        </mxCell>
        <mxCell id="VIRYulT3ZGyrxliM-nU3-1" value="Usuario" style="shape=umlActor;verticalLabelPosition=bottom;verticalAlign=top;html=1;outlineConnect=0;" vertex="1" parent="1">
          <mxGeometry x="20" y="440" width="30" height="60" as="geometry" />
        </mxCell>
        <mxCell id="VIRYulT3ZGyrxliM-nU3-4" value="" style="endArrow=classic;html=1;rounded=0;exitX=0.5;exitY=0.5;exitDx=0;exitDy=0;exitPerimeter=0;entryX=0;entryY=0.5;entryDx=0;entryDy=0;" edge="1" parent="1" source="VIRYulT3ZGyrxliM-nU3-1" target="VIRYulT3ZGyrxliM-nU3-5">
          <mxGeometry width="50" height="50" relative="1" as="geometry">
            <mxPoint x="170" y="300" as="sourcePoint" />
            <mxPoint x="290" y="220" as="targetPoint" />
          </mxGeometry>
        </mxCell>
        <mxCell id="VIRYulT3ZGyrxliM-nU3-5" value="CU_01&lt;br&gt;Solicitar_factura" style="ellipse;whiteSpace=wrap;html=1;" vertex="1" parent="1">
          <mxGeometry x="294" y="160" width="156" height="50" as="geometry" />
        </mxCell>
        <mxCell id="VIRYulT3ZGyrxliM-nU3-6" value="CU_02&lt;br&gt;Solicitud_cliente_producto" style="ellipse;whiteSpace=wrap;html=1;" vertex="1" parent="1">
          <mxGeometry x="294" y="250" width="156" height="50" as="geometry" />
        </mxCell>
        <mxCell id="VIRYulT3ZGyrxliM-nU3-7" value="CU_03&lt;br&gt;Selección_cliente" style="ellipse;whiteSpace=wrap;html=1;" vertex="1" parent="1">
          <mxGeometry x="294" y="340" width="156" height="50" as="geometry" />
        </mxCell>
        <mxCell id="VIRYulT3ZGyrxliM-nU3-8" value="CU_04&lt;br&gt;Validación cliente" style="ellipse;whiteSpace=wrap;html=1;" vertex="1" parent="1">
          <mxGeometry x="298" y="430" width="156" height="50" as="geometry" />
        </mxCell>
        <mxCell id="VIRYulT3ZGyrxliM-nU3-9" value="CU_04.1&lt;br&gt;Verificación_deuda" style="ellipse;whiteSpace=wrap;html=1;" vertex="1" parent="1">
          <mxGeometry x="290" y="520" width="156" height="50" as="geometry" />
        </mxCell>
        <mxCell id="VIRYulT3ZGyrxliM-nU3-11" value="CU_04.2&lt;br&gt;Finalización" style="ellipse;whiteSpace=wrap;html=1;" vertex="1" parent="1">
          <mxGeometry x="290" y="630" width="156" height="50" as="geometry" />
        </mxCell>
        <mxCell id="VIRYulT3ZGyrxliM-nU3-12" value="CU_05&lt;br&gt;Selección producto" style="ellipse;whiteSpace=wrap;html=1;" vertex="1" parent="1">
          <mxGeometry x="294" y="760" width="156" height="50" as="geometry" />
        </mxCell>
        <mxCell id="VIRYulT3ZGyrxliM-nU3-13" value="CU_06&lt;br&gt;Validación_producto" style="ellipse;whiteSpace=wrap;html=1;" vertex="1" parent="1">
          <mxGeometry x="294" y="860" width="156" height="50" as="geometry" />
        </mxCell>
        <mxCell id="VIRYulT3ZGyrxliM-nU3-14" value="CU_07&lt;br&gt;Finalizar_factura" style="ellipse;whiteSpace=wrap;html=1;" vertex="1" parent="1">
          <mxGeometry x="294" y="960" width="156" height="50" as="geometry" />
        </mxCell>
        <mxCell id="VIRYulT3ZGyrxliM-nU3-15" value="CU_08&lt;br&gt;Confirmación_factura" style="ellipse;whiteSpace=wrap;html=1;" vertex="1" parent="1">
          <mxGeometry x="294" y="1060" width="156" height="50" as="geometry" />
        </mxCell>
        <mxCell id="VIRYulT3ZGyrxliM-nU3-16" value="CU_08.1&lt;br&gt;Número_comprobante" style="ellipse;whiteSpace=wrap;html=1;" vertex="1" parent="1">
          <mxGeometry x="294" y="1160" width="156" height="50" as="geometry" />
        </mxCell>
        <mxCell id="VIRYulT3ZGyrxliM-nU3-17" value="Sistema" style="shape=umlActor;verticalLabelPosition=bottom;verticalAlign=top;html=1;outlineConnect=0;" vertex="1" parent="1">
          <mxGeometry x="770" y="610" width="30" height="60" as="geometry" />
        </mxCell>
        <mxCell id="VIRYulT3ZGyrxliM-nU3-18" value="" style="endArrow=classic;html=1;rounded=0;exitX=0.5;exitY=1;exitDx=0;exitDy=0;" edge="1" parent="1" source="VIRYulT3ZGyrxliM-nU3-9" target="VIRYulT3ZGyrxliM-nU3-11">
          <mxGeometry width="50" height="50" relative="1" as="geometry">
            <mxPoint x="390" y="800" as="sourcePoint" />
            <mxPoint x="440" y="750" as="targetPoint" />
          </mxGeometry>
        </mxCell>
        <mxCell id="VIRYulT3ZGyrxliM-nU3-19" value="&amp;lt;&amp;lt;extend&amp;gt;&amp;gt;" style="edgeLabel;html=1;align=center;verticalAlign=middle;resizable=0;points=[];" connectable="0" vertex="1" parent="VIRYulT3ZGyrxliM-nU3-18">
          <mxGeometry x="0.05" y="-2" relative="1" as="geometry">
            <mxPoint as="offset" />
          </mxGeometry>
        </mxCell>
        <mxCell id="VIRYulT3ZGyrxliM-nU3-21" value="" style="endArrow=classic;html=1;rounded=0;exitX=0.442;exitY=1;exitDx=0;exitDy=0;entryX=0.5;entryY=0;entryDx=0;entryDy=0;exitPerimeter=0;" edge="1" parent="1" source="VIRYulT3ZGyrxliM-nU3-8" target="VIRYulT3ZGyrxliM-nU3-9">
          <mxGeometry width="50" height="50" relative="1" as="geometry">
            <mxPoint x="440" y="520" as="sourcePoint" />
            <mxPoint x="490" y="470" as="targetPoint" />
          </mxGeometry>
        </mxCell>
        <mxCell id="VIRYulT3ZGyrxliM-nU3-22" value="&amp;lt;&amp;lt;include&amp;gt;&amp;gt;" style="edgeLabel;html=1;align=center;verticalAlign=middle;resizable=0;points=[];" connectable="0" vertex="1" parent="VIRYulT3ZGyrxliM-nU3-21">
          <mxGeometry x="-0.0506" relative="1" as="geometry">
            <mxPoint as="offset" />
          </mxGeometry>
        </mxCell>
        <mxCell id="VIRYulT3ZGyrxliM-nU3-23" value="" style="endArrow=classic;html=1;rounded=0;exitX=0.5;exitY=1;exitDx=0;exitDy=0;entryX=0.5;entryY=0;entryDx=0;entryDy=0;" edge="1" parent="1" source="VIRYulT3ZGyrxliM-nU3-15" target="VIRYulT3ZGyrxliM-nU3-16">
          <mxGeometry width="50" height="50" relative="1" as="geometry">
            <mxPoint x="340" y="1150" as="sourcePoint" />
            <mxPoint x="390" y="1100" as="targetPoint" />
          </mxGeometry>
        </mxCell>
        <mxCell id="VIRYulT3ZGyrxliM-nU3-24" value="&amp;lt;&amp;lt;include&amp;gt;&amp;gt;" style="edgeLabel;html=1;align=center;verticalAlign=middle;resizable=0;points=[];" connectable="0" vertex="1" parent="VIRYulT3ZGyrxliM-nU3-23">
          <mxGeometry x="-0.32" y="1" relative="1" as="geometry">
            <mxPoint as="offset" />
          </mxGeometry>
        </mxCell>
        <mxCell id="VIRYulT3ZGyrxliM-nU3-25" value="" style="endArrow=classic;html=1;rounded=0;exitX=0.5;exitY=0.5;exitDx=0;exitDy=0;exitPerimeter=0;entryX=1;entryY=0.5;entryDx=0;entryDy=0;" edge="1" parent="1" source="VIRYulT3ZGyrxliM-nU3-17" target="VIRYulT3ZGyrxliM-nU3-13">
          <mxGeometry width="50" height="50" relative="1" as="geometry">
            <mxPoint x="730" y="970" as="sourcePoint" />
            <mxPoint x="780" y="920" as="targetPoint" />
          </mxGeometry>
        </mxCell>
        <mxCell id="VIRYulT3ZGyrxliM-nU3-26" value="" style="endArrow=classic;html=1;rounded=0;exitX=0.5;exitY=0.5;exitDx=0;exitDy=0;exitPerimeter=0;entryX=1;entryY=0.5;entryDx=0;entryDy=0;" edge="1" parent="1" source="VIRYulT3ZGyrxliM-nU3-17" target="VIRYulT3ZGyrxliM-nU3-15">
          <mxGeometry width="50" height="50" relative="1" as="geometry">
            <mxPoint x="630" y="1080" as="sourcePoint" />
            <mxPoint x="680" y="1030" as="targetPoint" />
          </mxGeometry>
        </mxCell>
        <mxCell id="VIRYulT3ZGyrxliM-nU3-27" value="" style="endArrow=classic;html=1;rounded=0;exitX=0.5;exitY=0.5;exitDx=0;exitDy=0;exitPerimeter=0;entryX=0;entryY=0.5;entryDx=0;entryDy=0;" edge="1" parent="1" source="VIRYulT3ZGyrxliM-nU3-1" target="VIRYulT3ZGyrxliM-nU3-12">
          <mxGeometry width="50" height="50" relative="1" as="geometry">
            <mxPoint x="140" y="550" as="sourcePoint" />
            <mxPoint x="190" y="500" as="targetPoint" />
          </mxGeometry>
        </mxCell>
        <mxCell id="VIRYulT3ZGyrxliM-nU3-30" value="" style="endArrow=classic;html=1;rounded=0;exitX=0.5;exitY=0.5;exitDx=0;exitDy=0;exitPerimeter=0;entryX=0.006;entryY=0.7;entryDx=0;entryDy=0;entryPerimeter=0;" edge="1" parent="1" source="VIRYulT3ZGyrxliM-nU3-1" target="VIRYulT3ZGyrxliM-nU3-14">
          <mxGeometry width="50" height="50" relative="1" as="geometry">
            <mxPoint x="390" y="740" as="sourcePoint" />
            <mxPoint x="440" y="690" as="targetPoint" />
          </mxGeometry>
        </mxCell>
        <mxCell id="VIRYulT3ZGyrxliM-nU3-31" value="" style="endArrow=classic;html=1;rounded=0;entryX=1;entryY=0.5;entryDx=0;entryDy=0;exitX=0.5;exitY=0.5;exitDx=0;exitDy=0;exitPerimeter=0;" edge="1" parent="1" source="VIRYulT3ZGyrxliM-nU3-17" target="VIRYulT3ZGyrxliM-nU3-6">
          <mxGeometry width="50" height="50" relative="1" as="geometry">
            <mxPoint x="690" y="480" as="sourcePoint" />
            <mxPoint x="740" y="430" as="targetPoint" />
          </mxGeometry>
        </mxCell>
        <mxCell id="VIRYulT3ZGyrxliM-nU3-32" value="" style="endArrow=classic;html=1;rounded=0;entryX=1;entryY=0.5;entryDx=0;entryDy=0;exitX=0.5;exitY=0.5;exitDx=0;exitDy=0;exitPerimeter=0;" edge="1" parent="1" source="VIRYulT3ZGyrxliM-nU3-17" target="VIRYulT3ZGyrxliM-nU3-8">
          <mxGeometry width="50" height="50" relative="1" as="geometry">
            <mxPoint x="620" y="630" as="sourcePoint" />
            <mxPoint x="670" y="580" as="targetPoint" />
          </mxGeometry>
        </mxCell>
        <mxCell id="VIRYulT3ZGyrxliM-nU3-33" value="" style="endArrow=classic;html=1;rounded=0;entryX=0;entryY=0.5;entryDx=0;entryDy=0;exitX=0.5;exitY=0.5;exitDx=0;exitDy=0;exitPerimeter=0;" edge="1" parent="1" source="VIRYulT3ZGyrxliM-nU3-1" target="VIRYulT3ZGyrxliM-nU3-7">
          <mxGeometry width="50" height="50" relative="1" as="geometry">
            <mxPoint x="230" y="430" as="sourcePoint" />
            <mxPoint x="280" y="380" as="targetPoint" />
          </mxGeometry>
        </mxCell>
        <mxCell id="VIRYulT3ZGyrxliM-nU3-36" value="&amp;lt;&amp;lt;subsystem&amp;gt;&amp;gt;&lt;br&gt;Emisión factura" style="text;html=1;align=center;verticalAlign=middle;whiteSpace=wrap;rounded=0;" vertex="1" parent="1">
          <mxGeometry x="120" y="110" width="110" height="30" as="geometry" />
        </mxCell>
      </root>
    </mxGraphModel>
  </diagram>
</mxfile>
